<svg xmlns="http://www.w3.org/2000/svg" width="73.938" height="81.184" viewBox="0 0 73.938 81.184">
  <g id="Group_1" data-name="Group 1" transform="matrix(0.174, -0.985, 0.985, 0.174, -4.968, 70.193)">
    <ellipse id="Ellipse_1" data-name="Ellipse 1" cx="9.876" cy="15.13" rx="9.876" ry="15.13" transform="translate(51.661 10.736)" fill="#71c17f"/>
    <path id="Path_4" data-name="Path 4" d="M61.72,12.713c-3.379-8.438-15.982-8.806-23.227-6.4-6-2.224-15.679-.852-16.225,5.147a5.871,5.871,0,0,0,1.795,4.365c-8.264,1.563-9.725,8.731-2.192,12.468A80.181,80.181,0,0,1,8.059,30.359c-10.143,0-9.511,17.652,1.309,16.676,3.676-.441,12.885-2.9,23.124-7.853,4.931-2.365,3.8-.889,9.12.141-16.158,25.632,8.623,28.17,8.87,14.533C50.871,42.7,58.764,34.7,59.646,33.426,63.738,27.5,63.843,17.746,61.72,12.713Z" transform="translate(0.052 5.22)" fill="#fff"/>
    <path id="Path_5" data-name="Path 5" d="M44.274,10.072c-1.855-2.6-5.06-2.374-8.181-1.931-21.751,3.2-23.037,3.559-25.224,3.084C7.779,10.548,6.161,7.8,7.9,5.058c-10.4.868-8.871,16.5,1.486,15.668a82.182,82.182,0,0,0,14.14-3.736c3.056-1.1,6.042-2.32,8.987-3.653a13.914,13.914,0,0,1,2.207-.4,5.548,5.548,0,0,1,2.292-.153,13.462,13.462,0,0,1,2.238.132,11.411,11.411,0,0,0,2.375.556A45.63,45.63,0,0,0,39.148,17.6c-1.24,2.325-3.206,7.126-3.278,9.39a7.328,7.328,0,0,0,6.848,7.778c.083-.167.167-.347.25-.528a7.266,7.266,0,0,1-1.792-.264,6.983,6.983,0,0,1-4.653-8.5l.014-.056A43.963,43.963,0,0,1,44.274,10.072Z" transform="translate(0.042 32.427)" fill="#efeeee"/>
    <path id="Path_6" data-name="Path 6" d="M38.316,5.048a19.232,19.232,0,0,0,1.708,7c6.237,15.973,3.61,17.64-3.486,30.5-2.676,4.754-6.2,10.014-11.487,8.57-3.128,12.358,14,15.047,14.209,2.556.375-11.362,8.242-19.116,9.154-20.435C53.277,26.319,55.733,6.446,38.316,5.048Z" transform="translate(11.278 5.394)" fill="#efeeee"/>
    <path id="Path_7" data-name="Path 7" d="M34.131,46.756a4.4,4.4,0,0,0,2.678-3.339c.239-2.941-3.8-5.666-9.021-6.089s-9.643,1.626-9.882,4.567a3,3,0,0,0,.088,1c.614,2.534,4.311,4.71,8.934,5.084a13.417,13.417,0,0,0,7.2-1.219Z" transform="translate(8.088 -31.628)" fill="#e9e9eb"/>
    <path id="Path_8" data-name="Path 8" d="M18,43.751c2.04.019,8.884-1.427,16.138,3.865,5.711-2.972,1.776-8.771-6.344-9.428C22.891,37.791,16.971,39.917,18,43.751Z" transform="translate(8.081 -32.487)" fill="#efeeee"/>
    <path id="Path_9" data-name="Path 9" d="M35.634,39.092c.261-3.214-4.154-6.193-9.859-6.654s-10.539,1.777-10.8,4.991c-.281,3.94,5.51,6.293,9.859,6.645C28.855,44.4,35.3,43.092,35.634,39.092Z" transform="translate(6.707 -20.516)" fill="#fff"/>
    <path id="Path_10" data-name="Path 10" d="M15.078,39.447c2.23.02,9.709-1.56,17.637,4.224,6.241-3.248,1.941-9.585-6.933-10.3C20.424,32.935,13.955,35.258,15.078,39.447Z" transform="translate(6.7 -21.446)" fill="#efeeee"/>
    <path id="Path_11" data-name="Path 11" d="M34.1,33.016c.276-3.4-4.389-6.542-10.416-7.03s-11.134,1.877-11.41,5.272c-.3,4.163,5.821,6.648,10.416,7.021C26.941,38.629,33.755,37.243,34.1,33.016Z" transform="translate(5.436 -4.079)" fill="#fff"/>
    <path id="Path_12" data-name="Path 12" d="M12.386,33.392c2.356.022,10.257-1.648,18.633,4.463,6.593-3.431,2.051-10.127-7.324-10.885C18.034,26.512,11.2,28.966,12.386,33.392Z" transform="translate(5.429 -5.097)" fill="#efeeee"/>
    <path id="Path_13" data-name="Path 13" d="M56.977,42.217a26.26,26.26,0,0,0-3.972,6.907.17.17,0,0,1-.029.078h.015a31.231,31.231,0,0,0-2.339,10.377c-.126,5.2-4.76,8.953-9.635,7.514-3.9-1.182-6.208-5.632-5.148-9.988A43.87,43.87,0,0,1,40.723,45.3c-8.608-1.229-11.993,1.8-21.27,4.667a93.04,93.04,0,0,1-9.208,2.318A8.106,8.106,0,0,1,.756,44.722,8.783,8.783,0,0,1,2.6,38.53c3.1-3.875,6.26-2.613,13.386-4.045,1.721-.327,3.442-.7,5.119-1.12a8.094,8.094,0,0,1-3.766-4.092c-.015,0-.015-.016-.015-.016-1.09-2.307.192-6.026,5.193-7.685-2.912-3.2-1.539-7.141,2.5-8.9a.109.109,0,0,1,.074-.031c.038-.02.336-.15.485-.2C24.35,9.4,26.6,6.948,29.764,5.72c.147,0,7.163-2.618,13.077,1.6a7.114,7.114,0,0,1,2.354,2.66c2.968-.2,8.3.255,11.665,2.022,7.256-5.6,15.283,3.006,15.283,15.075C72.143,39.065,64.185,47.651,56.977,42.217ZM18.82,26.069c-.015,0-.015.016-.015.016-1.6,2.542,1.471,5.413,4.531,6.674h.029c6.881,2.911,15.127.324,15.445-3.718.1-1.416-.75-2.8-2.236-3.952-5.124-3.753-11.364-2.334-12.547-2.334v.016C22.855,22.771,19.669,24.272,18.82,26.069Zm4-6.6a5.888,5.888,0,0,0,1.427,1.665,17.741,17.741,0,0,1,12.621,2.271c4.319-1.216,6.55-4.348,2.942-7.576-.177-.14-.368-.3-.574-.436-3.016-2.153-7.621-2.8-11.282-2.038H27.94c-.029.015-.059.015-.088.031a13.149,13.149,0,0,0-1.442.4C25.492,13.794,21.134,16.083,22.821,19.473Zm4.1-9.661c0,.016-.015.016-.015.031a2.74,2.74,0,0,0,.074,2.147,16.664,16.664,0,0,1,5.56-.436,15.411,15.411,0,0,1,7.517,2.551A8.552,8.552,0,0,1,41.4,15.257c1.427-.659,3.133-2.131,2.736-3.671C43.507,6.269,29.823,4.193,26.925,9.812Zm28.713,3.314c-3.807-1.74-8.491-1.5-10.018-1.6.261,2.206-1.336,3.989-3.266,4.994a4.985,4.985,0,0,1,.721,2.909c-.177,2.256-2,4.123-4.766,5.149a5.822,5.822,0,0,1,1.956,4.589c-.446,5.8-9.957,7.831-16.99,5.227-2.28.638-4.648,1.182-7.031,1.618-7.595,1.536-9.92.225-12.518,3.516a7.139,7.139,0,0,0-1.5,5.056,6.617,6.617,0,0,0,7.752,6.161,88.912,88.912,0,0,0,9.061-2.271c13.362-4.118,8.721-5.053,22.55-4.62,1.836-3.352,6.509-9.036,9-11.855a.717.717,0,0,1,1.044-.031c1.07,1.075-1.109,1.523-6.737,9.568a46.315,46.315,0,0,0-7.62,16.024c-.853,3.485,1,7.094,4.133,8.043,3.825,1.156,7.636-1.759,7.767-6.052a33.045,33.045,0,0,1,2.442-10.937s0-.016.015-.016a.059.059,0,0,1,.015-.047,28.471,28.471,0,0,1,4.192-7.327C57.438,39.114,61.4,35.749,61.9,27.9,62.3,21.554,61.225,15.633,55.639,13.125Zm2.618-.249c4.645,3.311,5.486,9.245,5.119,15.137-.426,6.624-3.037,10.069-5.443,13.037,5.394,3.955,12.739-2.006,12.739-13.97C70.672,16.594,64.276,8.909,58.257,12.876Z" transform="translate(0 0)"/>
  </g>
</svg>
