<svg xmlns="http://www.w3.org/2000/svg" width="39" height="27" viewBox="0 0 39 27">
  <g id="Layer_16" data-name="Layer 16" transform="translate(-99.161 -143.909)">
    <path id="Path_15" data-name="Path 15" d="M121.858,144.256l15.656,11.867a1.6,1.6,0,0,1,0,2.573l-15.656,11.867a1.721,1.721,0,0,1-1.039.347H100.847a1.66,1.66,0,0,1-1.686-1.633V145.542a1.66,1.66,0,0,1,1.686-1.633h19.971a1.721,1.721,0,0,1,1.039.347Z" transform="translate(0)" fill="#21d0c8"/>
    <path id="Path_16" data-name="Path 16" d="M137.514,257.286l-15.656,11.866a1.722,1.722,0,0,1-1.039.347H100.847a1.661,1.661,0,0,1-1.686-1.633V256h39A1.607,1.607,0,0,1,137.514,257.286Z" transform="translate(0 -98.591)" fill="#47ffba"/>
  </g>
</svg>
